<svg width="24" height="24" viewBox="0 0 24 24" fill="none" xmlns="http://www.w3.org/2000/svg">
<path d="M19.7999 22.6L15.5999 18.4501C15.0166 18.6334 14.4249 18.7709 13.8249 18.8626C13.2249 18.9542 12.6166 19 11.9999 19C9.76657 19 7.7249 18.4001 5.8749 17.2001C4.0249 16 2.5749 14.4167 1.5249 12.45C1.44157 12.3 1.37907 12.1459 1.3374 11.9875C1.29574 11.8292 1.2749 11.6667 1.2749 11.5C1.2749 11.3334 1.29574 11.1709 1.3374 11.0125C1.37907 10.8542 1.44157 10.7 1.5249 10.55C1.89157 9.90005 2.28324 9.26672 2.6999 8.65005C3.11657 8.03338 3.5999 7.48338 4.1499 7.00005L1.3999 4.20005L2.7999 2.80005L21.1999 21.2001L19.7999 22.6ZM11.9999 16C12.1832 16 12.3582 15.9917 12.5249 15.975C12.6916 15.9584 12.8582 15.925 13.0249 15.875L7.6249 10.475C7.5749 10.6417 7.54157 10.8084 7.5249 10.975C7.50824 11.1417 7.4999 11.3167 7.4999 11.5C7.4999 12.75 7.9374 13.8125 8.8124 14.6875C9.6874 15.5625 10.7499 16 11.9999 16ZM19.2999 16.4501L16.1249 13.3C16.2416 13.0167 16.3332 12.725 16.3999 12.425C16.4666 12.125 16.4999 11.8167 16.4999 11.5C16.4999 10.25 16.0624 9.18755 15.1874 8.31255C14.3124 7.43755 13.2499 7.00005 11.9999 7.00005C11.6832 7.00005 11.3749 7.03338 11.0749 7.10005C10.7749 7.16672 10.4832 7.26672 10.1999 7.40005L7.6499 4.85005C8.3499 4.56672 9.0624 4.35422 9.7874 4.21255C10.5124 4.07088 11.2499 4.00005 11.9999 4.00005C14.2332 4.00005 16.2791 4.60422 18.1374 5.81255C19.9957 7.02088 21.4499 8.60838 22.4999 10.575C22.5832 10.7084 22.6457 10.8542 22.6874 11.0125C22.7291 11.1709 22.7499 11.3334 22.7499 11.5C22.7499 11.6667 22.7332 11.8292 22.6999 11.9875C22.6666 12.1459 22.6082 12.2917 22.5249 12.425C22.1249 13.2084 21.6624 13.9417 21.1374 14.625C20.6124 15.3084 19.9999 15.9167 19.2999 16.4501ZM14.6749 11.85L11.6749 8.85005C12.1082 8.76672 12.5291 8.80005 12.9374 8.95005C13.3457 9.10005 13.6916 9.33338 13.9749 9.65005C14.2582 9.95005 14.4624 10.2917 14.5874 10.675C14.7124 11.0584 14.7416 11.45 14.6749 11.85Z" fill="#737A86"/>
</svg>
